<svg id="svg" version="1.1" xmlns="http://www.w3.org/2000/svg" xmlns:xlink="http://www.w3.org/1999/xlink" width="400" height="400" viewBox="0, 0, 400,400"><g id="svgg"><path id="path0" d="M256.126 16.764 C 256.057 20.484,257.678 24.565,259.728 25.832 C 261.779 27.099,265.669 38.022,268.373 50.103 L 273.289 72.070 252.399 92.743 C 240.909 104.112,226.711 121.646,220.847 131.707 C 214.984 141.768,206.176 154.050,201.275 159.000 L 192.363 168.001 189.761 153.000 C 188.330 144.750,185.656 130.875,183.818 122.167 C 181.678 112.031,182.189 99.919,185.238 88.503 C 189.015 74.361,188.960 70.324,184.975 68.994 C 182.211 68.071,181.139 65.392,182.593 63.040 C 184.047 60.688,183.373 59.915,181.096 61.323 C 172.110 66.876,171.200 128.271,179.663 158.000 C 188.865 190.325,180.815 232.742,170.553 206.000 C 167.562 198.203,156.000 198.203,156.000 206.000 C 156.000 209.300,157.607 212.000,159.572 212.000 C 164.469 212.000,169.015 224.810,165.135 227.680 C 163.411 228.956,155.018 238.686,146.484 249.303 C 100.182 306.906,43.695 352.000,17.843 352.000 L 7.289 352.000 17.368 363.978 C 22.912 370.567,28.593 379.567,29.993 383.978 C 33.681 395.597,36.189 394.442,62.507 369.000 C 151.119 283.336,198.956 222.478,215.374 174.522 C 224.429 148.072,231.963 134.344,246.651 117.528 C 288.137 70.034,295.999 58.995,295.794 48.528 C 295.606 38.952,295.025 39.356,289.366 53.000 C 281.071 72.998,276.000 71.944,276.000 50.223 C 276.000 32.365,256.450 -0.549,256.126 16.764 " stroke="none" fill="#000000" fill-rule="evenodd"></path></g></svg>