<?xml version="1.0" encoding="utf-8"?>
<svg version="1.1" id="Layer_1" xmlns="http://www.w3.org/2000/svg" xmlns:xlink="http://www.w3.org/1999/xlink" x="0px" y="0px"
	 viewBox="0 0 1457.659 1669.765" style="enable-background:new 0 0 1457.659 1669.765;" xml:space="preserve">
<path d="M1362.739,652.98c-24.448-23.8-48.274-32.909-79.081-45.896c-120.14-50.649-108.036-49.033-204.469-62.398
	c-33.594-4.656-66.363-16.744-100.661-17.592c-23.444-0.58-46.757,3.87-70.2,2.737c-19.177-0.927-38.352-4.883-57.602-6.312
	c-31.729-2.356-65.784-1.474-95.261-15.165c-20.686-9.607-32.916-12.484-51.012-27.293c-1.191-0.975-2.446-2.256-3.842-2.532
	c-8.342-1.65-14.94-7.313-22.884-9.745c-4.286-1.312-8.434-2.9-12.295-5.074c-12.581-7.082-37.859-7.086-44.407-14.103
	c-25.159-26.958-88.224,11.667-102.214,18.055c-20.972,9.576-43.644,15.369-66.621,17.186
	c-60.739,4.801-89.511-16.208-110.741-52.538c-8.977-15.362,7.24-22.773,13.259-34.489c16.054-31.251,59.566,0.023,119.473-85.261
	c10.941-15.575,7.556-4.408,28.553-38.61c0.615-1,0.945-3.456-2.012-3.654c-6.306-0.422-19.338,10.04-41.148,19.61
	c-54.267,23.81-11.096-1.334-59.432,16.335c-19.676,7.193-38.896,15.41-56.83,26.369c-3.58,2.188-7.634,3.49-11.582,3.46
	c-21.2-0.159-17.367-13.409-19.915-18.581c-5.171-10.497-2.356-19.686,3.874-28.793c20.195-29.515,51.175-18.651,102.655-68.145
	c21.572-20.74,24.303-47.464,18.578-45.201c12.192-4.819,4.17-23.879,3.19-27.615c-4.779-18.229,1.229-27.763-25.477-64.114
	c-7.597-10.341-8.848-24.697-17.976-34.017c-4.997-5.102-10.658-9.554-16.049-14.268c-2.884-2.522-8.332-1.79-0.9,12.178
	c19.486,36.62,25.672,75.753,24.335,79.892c-2.347,7.264,2.725,12.555,0.937,16.518c-3.532,7.831,1.196,15.55-1.005,19.362
	c-5.401,9.355-0.175,14.907-7.231,21.538c-7.617,7.159-4.456,14.327-16.958,18.69c-11.967,4.176-5.416,14.775-13.902,13.116
	c-3.048-0.596-9.695-5.108-16.361,0.622c-6.757,5.808-9.542-3.507-23.362,1.356c-22.395,7.88-12.912-2.98-32.185,12.1
	c-9.17,7.174-23.379,1.741-23.196,16.488c0.107,8.627-13.177,4.265-16.264,16.214c-2.162,8.369-17.217,18.042-21.38,3.029
	c-2.082-7.509-4.296-7.46-16.322-19.07c-9.497-9.168-12.498-6.437-17.273-10.302c-14.069-11.389-48.979-7.236-55.674-9.993
	c-7.21-2.97-14.635-3.262-22.23-2.185c-7.456,1.058-5.607-3.174-18.492-7.304c-5.565-1.784-9.267-8.03-16.126-6.658
	c-1.758,0.352-4.621-6.435-8.936-10.349c-0.33-0.299-0.484-1.212-0.278-1.617c2.041-4.02,0.066-6.61-3.007-8.86
	c-1.046-0.766-1.132-1.946-1.346-3.091c-1.179-6.312-5.4-7.263-3.939-13.682c2.186-9.605-3.748-33.931,4.203-48.636
	c12.874-23.811,0.315-5.272,31.381-57.281c0.965-1.616,8.962-8.805,6.109-11.528c-2.051-1.957-6.008-1.232-7.471,1.499
	c-0.149,0.277-15.009,17.346-18.462,22.343c-10.914,15.793-22.197,18.376-26.397,31.164c-3.698,11.261-16.678,14.291-18.513,28.095
	c-0.072,0.539-0.404,1.142-0.799,1.526c-5.724,5.558-5.831,12.797-6.067,20.01c-0.328,10.03-6.756,10.682-2.014,18.762
	c2.977,5.073,1.552,8.153,1.506,17.635c-0.033,6.889,5.51,4.039,7.956,15.633c2.327,11.032,7.149,6.986,12.003,16.468
	c9.254,18.077,63.289,41.688,79.761,44.182c8.562,1.297,32.993,12.838,38.504,20.976c0.498,0.736,1.535,1.175,2.403,1.578
	c7.004,3.249,11.171,20.299,11.738,21.875c1.194,3.321,1.282,6.733-0.58,10.114c-2.193,3.981-5.163,26.286-27.246,32.224
	c-2.826,0.76-5.809-1.207-7.96,0.028c-7.976,4.579-21.325-9.768-31.551-12.168c-16.24-3.812-21.859-1.268-74.57-0.665
	c-8.285,0.095-10.053,1.645-9.856,5.136c0.102,1.811,0.831,3.353,1.843,4.817c8.004,11.591,10.472,16.024,14.662,17.728
	c12.913,5.251,40.452,45.536,76.967,39.339c22.205-3.766,47.042,23.059,48.993,42.38c0.147,1.459,1.051,2.916,1.853,4.221
	c5.402,8.792,4.043,14.677,7.203,26.149c8.984,32.648,6.948,67.915,15.383,101.181c4.645,18.318,20.133,44.374,12.894,63.337
	c-4.786,12.537-4.713,35.057-6.603,43.774c-1.537,7.09-0.804,13.618,4.14,19.655c28.665,34.999,39.541,29.299,59.894,46.487
	c50.019,42.241,93.773,96.505,129.032,164.239c2.427,4.662,18.97,29.963,21.769,31.215c7.59,3.394,14.955,7.499,22.83,9.989
	c41.063,12.982,70.07,3.265,74.512,22.998c2.162,9.605,8.782,24.43,8.907,35.398c0.094,8.231,0.538,3.518,7.936,47.264
	c1.647,9.741,2.247,19.61,3.928,29.363c2.104,12.209,3.69,24.526,1.705,36.986c-0.391,2.456-1.477,4.873-0.888,7.45
	c4.004,17.515,1.875,35.507,4.092,53.188c5.331,42.511,30.033,41.746,30.178,187.854c0.031,31.245,4.233,66.638-8.134,96.259
	c-6.172,14.783-15.477,27.247-20.465,42.837c-4.716,14.738-8.236,30.852-14.207,44.502c-7.86,17.969,131.804,55.322,135.273,27.358
	c0.465-3.75-0.159-7.538-0.389-11.31c-1.792-29.37,18.128-42.772,26.375-53.961c28.021-38.019-24.925-158.109-20.458-234.802
	c0.213-3.663,1.091-7.225-0.036-10.91c-0.767-2.507-0.706-5.075,1.727-6.824c9.964-7.162,2.086-50.314,1.828-62.462
	c-0.088-4.145-3.205-209.951-12.505-232.111c-5.81-13.844,14.533-25.675,24.855-13.911c14.525,16.587,50.706,19.889,71.031,24.194
	c102.649,21.743,188.562,19.704,188.562,19.704c11.559,2.124,19.212,10.802,30.029,14.535c22.639,7.813,35.624-16.821,46.671-23.585
	c32.297-19.776,23.987-21.643,36.411-24.182c12.062-2.465,15.137,7.476,17.599,19.538c3.614,17.705,8.788,25.499,11.019,36.091
	c1.608,7.633,4.414,14.844,7.062,22.125c1.642,4.514,6.451,5.238,8.096,8.766c2.101,4.504,0.393,6.819,1.282,11.427
	c1.858,9.634,36.996,108.682,44.752,182.518c1.7,16.186-2.567,31.754-2.237,48.172c0.409,20.357-58.792,153.126-59.22,154.133
	c-7.941,18.685-14.288,38.03-22.875,56.444c-15.592,33.434-37.445,36.176-48.77,89.616c-2.365,11.158-0.97,14.523,10.705,15.573
	c13.065,1.176,26.716,8.134,40.248,7.017c16.176-1.335,28.4-14.572,44.454-16.481c25.697-3.056,26.419,5.121,62.29-13.129
	c8.91-4.533,4.866-8.909,1.459-15.15c-12.111-22.184,18.401-40.54,26.229-54.033c23.696-40.844,60.011-257.33,98.281-314.616
	c31.878-47.718-30.888-62.033-41.796-156.996c-3.533-30.756,13.576-19.258,15.68-61.694c0.1-2.018,0.529-3.792,1.986-5.279
	c4.719-4.819-1.923-7.099,2.154-12.292c3.092-3.937,3.378,1.761,6.416,5.648c5.45,6.97,20.017-10.949,18.813-11.929
	c4.867,3.961,12.59,1.092,16.406-3.889c3.816-4.982,5.08-11.392,7.42-17.215c6.548-16.294,21.254-27.544,33.774-39.858
	c45.704-44.946,65.218-100.235,65.097-118.385C1427.321,740.576,1403.253,692.422,1362.739,652.98z M610.325,1535.625
	c-2.125,0.448-16.526-1.401-16.486-1.437c16.813-15.404,17.319-36.696,26.31-51.08c6.166-9.864,12.638-9.425,9.468-35.706
	c-4.648-38.544-6.738-78.195-12.724-116.386c-1.721-10.98-3.781-54.664-1.63-55.225c11.597-3.027,29.621,190.507,29.116,198.181
	C643.359,1489.454,636.169,1530.174,610.325,1535.625z M1172.067,1458.306c-11.639,27.792-6.132,37.418-23.611,59.978
	c-12.397,16.001-5.486,21.038-18.725,38.129c-6.914,8.926-11.929,4.578-11.498-3.432c0.396-7.357,7.197-18.415,9.335-25.905
	c12.451-43.619,40.584-131.601,63.969-172.143c1.881-3.262,9.686-5.673,9.442,0.709
	C1199.693,1365.057,1178.35,1443.304,1172.067,1458.306z M1392.333,786.105c-0.428,44.681-12.064,47.385-14.495,60.931
	c-0.695,3.869-14.166,25.745-23.457,36.337c-14.211,16.2-42.234,34.473-48.428,41.223c-1.587,1.729-3.761,3.228-6.091,3.057
	c-12.563-0.922-25.587,13.363-25.025,5.422c0.123-1.734-0.208-3.742,0.55-5.15c4.018-7.451,4.476-16.489,10.44-23.076
	c19.071-21.062,83.753-100.087,90.034-148.262c0.814-6.255,8.694-5.099,13.32,12.42
	C1390.654,774.589,1392.738,780.119,1392.333,786.105z"/>
</svg>
