<svg id="exbA9p1dPv31" xmlns="http://www.w3.org/2000/svg" xmlns:xlink="http://www.w3.org/1999/xlink" viewBox="0 0 288.018 212.128" shape-rendering="geometricPrecision" text-rendering="geometricPrecision"><path id="exbA9p1dPv32" d="M45.886719,0.007813C42.540377,0.228941,42.169109,4.878406,38.880859,5.488281C37.125859,5.814281,35.713078,4.804047,34.080078,5.248047C31.890975,5.843479,29.855032,8.076699,29.248047,10.378906C29.153147,10.349646,29.058533,10.320376,29,10.378906C28.94107,10.437826,29.05892,10.569976,29,10.628906C28.882149,10.746757,28.617851,10.511054,28.5,10.628906C28.44107,10.687826,28.55892,10.819976,28.5,10.878906C28.382149,10.996757,28.117851,10.761054,28,10.878906C27.94107,10.937826,28.05892,11.069976,28,11.128906C27.91224,11.216656,26.922683,11.042566,26.75,11.128906C26.644591,11.181606,26.605409,11.326206,26.5,11.378906C26.4907,11.383606,26.47869,11.380106,26.46875,11.382806C26.771255,11.10388,27.016779,10.768162,27.119141,10.289056C24.983141,10.794062,22.712844,13.240588,21.839844,15.808588C22.410844,17.331588,21.994609,17.886197,21.599609,19.408197C23.070609,22.119197,26.880063,21.01176,29.039062,23.00976C27.327064,24.97676,24.617062,25.946822,23.039062,28.048822C21.112064,34.441822,14.955844,36.605588,9.839844,39.808588C7.99684,42.506588,4.478547,43.273291,4.560547,46.529291C4.633547,49.453291,9.158453,53.074666,7.439453,55.888666C5.711453,55.420666,3.927859,54.970213,2.880859,54.449213L2.880859,55.648432C4.578859,55.788432,8.146922,55.709292,7.919922,58.529291L4.560547,58.529291C4.550547,58.199291,4.673781,58.001588,4.800781,57.808588C3.877782,59.125606,0.406,57.894514,0,59.728516C1.869,59.724516,5.335159,58.298047,8.160156,59.248047C8.612157,61.116047,9.402335,62.646828,10.320312,64.048828C9.567335,63.935828,9.685141,64.695531,9.119141,64.769531C7.981141,70.614531,10.782219,74.416281,13.199219,77.488281C13.791219,77.520281,14.356625,77.524051,14.640625,77.248047C14.592625,77.935047,14.609375,78.559219,15.359375,78.449219C16.299375,78.213219,15.191844,77.418766,15.839844,77.009766C15.633844,78.014766,16.913297,77.53375,17.279297,77.96875C17.655297,77.62475,17.469234,76.718531,18.240234,76.769531C18.263234,77.146531,18.208704,77.600281,18.720703,77.488281C19.360703,75.159281,20.707781,74.055375,22.800781,74.609375C20.035781,75.577375,20.800781,79.677609,22.800781,80.849609C22.022781,83.292609,23.117938,86.826375,24.960938,86.609375C23.932938,85.455375,24.523937,82.432609,24.960938,80.849609C25.741937,86.627609,27.285453,91.642828,31.439453,94.048828C30.117453,94.646828,28.916844,95.366984,27.839844,96.208984C28.875385,97.431499,31.440974,96.239534,32.375,96.013672C32.38721,96.099862,32.40703,96.189844,32.375,96.253906C32.34865,96.306616,32.27635,96.326206,32.25,96.378906C32.23137,96.416176,32.25,96.462236,32.25,96.503906L32.25,96.625C30.27666,99.948253,28.274479,103.97383,29.519531,108.68945C30.502531,112.41245,33.780297,116.04553,35.279297,118.76953C35.047297,115.88153,34.037375,113.7692,33.359375,111.32812C35.562375,114.32512,35.529906,119.5562,38.878906,121.4082C38.040906,118.8862,36.647766,116.92122,35.759766,114.44922L36.958984,114.44922C34.809425,112.08074,33.673722,107.52202,35.109375,103.87891C35.114075,103.87791,35.121315,103.88291,35.125005,103.87891C35.135135,103.86881,35.125213,103.85031,35.125005,103.83591C35.135805,103.80891,35.143215,103.78071,35.154305,103.75391C35.189045,103.76091,35.227455,103.77651,35.250005,103.75391C35.279465,103.72441,35.231375,103.66621,35.250005,103.62891C35.325005,103.47891,35.550005,103.40391,35.625005,103.25391C35.643635,103.21661,35.606375,103.16621,35.625005,103.12891C35.649865,103.07911,35.797402,102.94867,35.904302,102.84961C35.260348,107.08163,35.354234,112.78494,37.919927,114.92969C38.986927,119.48569,40.141286,124.73239,42.238286,127.65039C42.543286,128.07439,42.245486,129.40238,43.439458,128.60938C41.501458,124.70937,41.950692,117.492,43.679693,113.25C43.92526,114.28228,44.130926,115.23119,44.304693,116.11133C44.365413,115.83744,44.428049,115.56136,44.500005,115.27734C44.501805,115.27034,44.497705,115.26094,44.500005,115.25394C44.501205,115.25094,44.506205,115.24894,44.507805,115.24594C44.551365,115.07481,44.577165,114.91866,44.624993,114.74399C44.625976,114.79469,44.624806,114.81219,44.624993,114.85923C44.614253,114.95925,44.610853,115.05338,44.601553,115.15219C44.571793,115.18439,44.526993,115.20749,44.507803,115.24589C44.505103,115.25659,44.502703,115.26649,44.500003,115.27719C44.452873,115.46201,44.560163,115.69829,44.500003,115.87876C44.481373,115.93466,44.401353,115.95106,44.375003,116.00376C44.356373,116.04106,44.375003,116.08706,44.375003,116.12876L44.375003,116.37876L44.375003,116.4979C44.791172,118.68097,44.987205,120.35941,45.048831,121.63071C46.084208,125.85738,48.356045,129.06952,49.679691,133.16977C50.066691,134.36877,50.525378,135.60933,51.359378,136.77133C49.570306,128.91025,49.375003,127.62876,49.375003,127.62876C50.299452,129.77459,51.047684,132.65182,51.595706,134.85141C52.550706,134.36641,51.728878,132.10327,52.796878,131.73227C52.925878,133.76227,53.191567,135.6561,54.476565,136.5311C54.321565,135.3091,53.3198,132.83774,54.7168,132.21274C53.9728,136.30474,55.45894,139.62788,57.835941,141.33188C57.222941,138.74388,55.029784,136.45996,55.675784,133.41196C56.766784,133.90696,56.455939,137.8691,57.835941,136.5311C58.606941,138.4801,59.683315,140.12388,61.195315,141.33188C61.874316,140.95388,60.65355,140.04719,61.43555,139.65219C63.93755,142.14019,64.628237,146.61226,63.115237,150.69126C64.645237,149.98026,64.758394,147.85471,65.275394,146.13071C65.741394,149.02171,63.521706,150.42371,63.595706,152.13071C64.750706,152.47471,64.659394,150.33149,65.275394,150.93149C65.186394,152.20249,64.244409,152.61863,64.316409,154.05063C66.254409,152.94863,66.004784,149.65987,67.675784,148.29087C68.472784,150.19787,65.078081,152.41635,66.955081,153.81235C66.911081,152.32835,67.303019,151.27802,67.916019,150.45102C68.592019,153.95202,68.895237,157.48933,69.115237,160.77133C69.305237,163.59733,70.013409,166.45796,70.316409,169.41196C70.692409,173.08396,69.774175,177.29067,70.076175,181.17173C70.513175,186.79272,72.81494,190.98465,69.835941,195.09165C68.779941,193.87565,67.646097,194.22419,65.996097,193.65219C65.291097,194.04119,64.282878,194.39188,64.796878,195.33188C64.865948,195.35288,64.908609,195.34718,64.962894,195.35338C64.973284,195.40418,64.980824,195.45582,65.000004,195.50377C65.010944,195.53117,65.049324,195.53987,65.062504,195.56627C65.066604,195.57427,65.063904,195.66698,65.062504,195.75377C65.023834,195.74087,64.990344,195.71547,64.953129,195.69907C64.546193,195.45175,64.148703,195.19513,63.839848,194.84946C63.489535,194.82416,63.157267,194.81646,62.839848,194.82406C61.046746,194.86686,59.760152,195.4159,58.761723,196.25375C58.758023,196.2546,58.753523,196.25175,58.750003,196.25375C58.64636,196.35739,58.662043,196.34975,58.679693,196.32795C58.697343,196.30615,58.716973,196.27025,58.625003,196.31625C58.550003,196.35375,58.512503,196.46625,58.437503,196.50375C58.418873,196.51275,58.389733,196.48905,58.375003,196.50375C58.349683,196.52915,58.382003,196.57825,58.375003,196.61117C58.368803,196.61717,58.361683,196.62257,58.355473,196.62877C58.339933,196.62577,58.322633,196.61867,58.312503,196.62877C58.309603,196.63177,58.313422,196.66007,58.312503,196.66977C56.944763,198.05324,56.148201,200.00871,55.199222,201.8104C50.971222,202.3624,53.502378,210.16562,57.359378,209.00962C57.545378,210.66362,59.216769,210.83176,59.759769,212.12876C61.718769,211.63776,63.912237,211.10624,66.240237,211.65024C66.396721,211.10525,66.268657,210.84293,66.105472,210.61704C66.108472,210.62004,66.111472,210.62304,66.115272,210.62504C66.128722,210.63204,66.226229,210.62504,66.246132,210.62504L66.556679,210.62504L66.865272,210.62504C66.880002,210.62504,66.899782,210.63544,66.910192,210.62504C66.920612,210.61464,66.899772,210.59244,66.910192,210.58204C66.920612,210.57164,66.940382,210.58204,66.955112,210.58204C66.996732,210.58204,67.150675,210.59004,67.175815,210.58204C67.195575,210.57504,67.200155,210.54644,67.218785,210.53714C67.245135,210.52394,67.287795,210.55794,67.308625,210.53714C67.319045,210.52674,67.298205,210.50264,67.308625,210.49224C67.323365,210.47754,67.381775,210.50694,67.396515,210.49224C67.406935,210.48184,67.386095,210.45964,67.396515,210.44924C67.406935,210.43884,67.429075,210.45964,67.439485,210.44924C67.449905,210.43884,67.429065,210.41474,67.439485,210.40434C67.454215,210.38964,67.514595,210.41904,67.529325,210.40434C67.539745,210.39394,67.529325,210.37604,67.529325,210.36134C67.544055,210.36134,67.559115,210.36834,67.572295,210.36134C67.590925,210.35234,67.598585,210.32574,67.617215,210.31644C67.627305,210.31144,67.679885,210.31444,67.716825,210.31644C67.966628,211.28887,69.812449,211.49692,70.32034,211.41019C70.31444,211.38219,70.30399,211.35899,70.2969,211.33209L70.31253,211.33209L70.35745,211.33209C70.37218,211.33209,70.39001,211.34249,70.40042,211.33209C70.41084,211.32169,70.39,211.29949,70.40042,211.28909C70.41084,211.27869,70.43493,211.29949,70.44534,211.28909C70.45576,211.27869,70.43492,211.25459,70.44534,211.24419C70.45576,211.23379,70.47709,211.25119,70.49026,211.24419C70.50889,211.23519,70.5146,211.21049,70.53323,211.20119C70.55075,211.19219,70.657008,211.21019,70.666043,211.20119C70.676463,211.19079,70.655623,211.16669,70.666043,211.15629C70.676463,211.14589,70.700553,211.16669,70.710963,211.15629C70.721383,211.14589,70.700543,211.12179,70.710963,211.11139C70.721383,211.10099,70.743523,211.12179,70.753933,211.11139C70.764353,211.10099,70.743513,211.07879,70.753933,211.06839C70.774763,211.04759,70.822933,211.08919,70.843773,211.06839C70.854193,211.05799,70.833353,211.03389,70.843773,211.02349C70.854193,211.01309,70.876333,211.03389,70.886743,211.02349C70.897163,211.01309,70.876323,210.98899,70.886743,210.97859C70.897163,210.96819,70.921253,210.98899,70.931663,210.97859C70.942083,210.96819,70.921243,210.94599,70.931663,210.93559C70.942083,210.92519,70.966173,210.94599,70.976583,210.93559C70.997413,210.91479,70.955753,210.86649,70.976583,210.84569C70.987003,210.83529,71.009143,210.85609,71.019553,210.84569C71.029973,210.83529,71.009133,210.81309,71.019553,210.80269C71.029973,210.79229,71.054063,210.81309,71.064473,210.80269C71.076563,210.79059,71.052483,210.64894,71.064473,210.62496C71.073773,210.60636,71.098133,210.60056,71.107443,210.58196C71.114043,210.56876,71.107443,210.55176,71.107443,210.53706L71.107443,210.49216L71.107443,210.22849L71.107443,210.01559C71.253374,209.87597,71.428596,209.74599,71.75588,209.7363C71.85388,210.3143,71.317646,210.25752,71.515646,210.93552C74.039646,211.00252,75.836818,209.69681,78.716818,210.21481C79.479818,208.97781,81.243193,208.74119,82.076193,207.57419C81.764391,203.93556,83.348555,202.19388,83.898459,199.41794C83.901159,199.41494,83.904659,199.41294,83.906259,199.40994C83.911159,199.39994,83.909359,199.38884,83.906259,199.37674C83.908159,199.36674,83.910259,199.35734,83.912159,199.34744C83.920359,199.34695,83.931539,199.35344,83.937549,199.34744C83.944949,199.34044,83.937549,199.32714,83.937549,199.31614L83.937549,199.22244C83.762017,198.82374,84.022619,199.07176,84.236377,198.69314C86.468377,194.82414,87.241518,190.20845,87.355518,185.01345C87.366518,184.51045,86.831002,183.89881,86.877002,183.33181C87.003002,181.78881,88.300924,179.27453,88.796924,177.09353C90.028924,171.67553,91.01683,165.02453,91.67583,159.09353C93.07783,156.01553,95.113612,153.5699,96.476611,150.4529C96.452611,151.19292,95.655127,152.8853,96.955127,152.8533C97.133127,151.7513,97.040597,150.37797,97.435596,149.49197C99.858596,152.42097,96.08444,153.18044,95.27544,155.97244C93.97644,160.45744,93.416846,163.6155,96.716846,167.0115C97.400676,166.9588,96.594601,166.40865,96.709046,166.1658C96.753946,166.1902,96.83422,166.1269,96.873109,166.1658C96.914779,166.2075,96.831439,166.30187,96.873109,166.34353C96.914779,166.38523,96.998139,166.31713,97.050843,166.34353C97.052543,166.34436,97.053143,166.34653,97.054743,166.34753C97.261417,166.96929,97.394169,167.66381,97.435602,168.45104C102.72961,171.23804,107.54923,174.5006,112.07623,178.0526C112.09923,177.6756,112.04473,177.2199,112.5567,177.3319C116.6197,178.2279,124.43686,178.2322,126.71686,176.6112C126.59305,176.5765,126.45823,176.5574,126.32818,176.5311C126.33718,176.5241,126.34688,176.5174,126.35158,176.5077C126.35858,176.4945,126.34458,176.4779,126.35158,176.4647C126.36058,176.4461,126.38748,176.4384,126.39648,176.4198C126.40348,176.4066,126.39148,176.3908,126.39648,176.3768C126.40688,176.3455,126.42908,176.3183,126.43948,176.287C126.44448,176.273,126.43248,176.2572,126.43948,176.244C126.44848,176.2254,126.47538,176.2177,126.48438,176.1991C126.49438,176.1799,126.48938,176.1532,126.48438,176.1268C126.64287,176.1278,126.79248,176.1379,126.96094,176.1288C129.19494,173.9388,132.21894,172.01736,132.96094,167.73036C132.82933,167.72436,132.7508,167.66566,132.67188,167.60731C132.67288,167.57431,132.67788,167.5037,132.67188,167.49208C132.66288,167.47348,132.63598,167.46578,132.62698,167.44718C132.61378,167.42078,132.64778,167.38008,132.62698,167.35928C132.61658,167.34888,132.59438,167.36968,132.58398,167.35928C132.57358,167.34888,132.59098,167.32948,132.58398,167.31628C132.57498,167.29768,132.54808,167.28998,132.53908,167.27138C132.52728,167.24778,132.55088,167.20708,132.53908,167.18348C132.53008,167.16488,132.50318,167.15718,132.49418,167.13858C132.47888,167.10808,132.50968,166.93338,132.49418,166.91788C132.48378,166.90748,132.46158,166.92828,132.45118,166.91788C132.42908,166.89578,132.47328,166.80717,132.45118,166.78507C132.44078,166.77467,132.41668,166.79547,132.40628,166.78507C132.38548,166.76417,132.42708,166.71797,132.40628,166.69717C132.39588,166.68677,132.37368,166.70757,132.36328,166.69717C132.36128,166.69517,132.36363,166.67577,132.36328,166.66787C132.47901,166.70337,132.55092,166.72077,132.7168,166.77334C132.2638,165.62534,132.16885,164.12243,130.79688,163.89443C130.51188,164.68343,129.32023,164.3002,129.11523,163.6542C129.52823,163.6672,129.73094,163.46973,129.83594,163.17373C128.07294,160.60773,121.50987,160.81402,118.79688,162.45302C117.05988,161.87006,115.92639,160.68257,113.27539,161.01357C109.82639,155.52157,120.96202,150.50243,121.91602,145.89443C121.72222,145.88443,121.54291,145.86173,121.375,145.82603C121.373,145.80153,121.375,145.77783,121.375,145.75373C121.4167,145.75373,121.4705,145.78323,121.5,145.75373C121.5295,145.72423,121.4705,145.65823,121.5,145.62873C121.5589,145.56983,121.6755,145.66603,121.75,145.62873C121.7745,145.61653,121.86614,145.51468,121.93359,145.44513C125.16918,146.28909,129.97723,143.23111,134.40234,143.97248C134.81634,143.82748,134.38384,142.83526,134.88281,142.77326C137.37281,143.80726,140.88197,142.82356,143.04297,142.05255C142.87597,141.58055,141.70452,142.11105,141.60352,141.57209C142.56852,141.40709,142.97367,141.80132,143.76367,141.81232C146.53267,139.30632,152.33391,139.6487,156.00391,139.1717C156.07491,139.8207,155.00067,140.54362,155.76367,141.09162C156.05267,140.17462,157.06883,138.7257,157.92383,139.1717C157.72383,139.77265,157.26317,140.11534,157.20117,140.85334C157.53117,145.40334,158.8015,149.01363,160.5625,152.13263C161.0095,152.16563,161.36348,152.28915,161.52148,152.61115C163.55448,159.93715,166.55419,166.29952,174.24219,167.97052C176.56519,172.92852,181.29667,175.47784,185.76367,178.29084C185.64167,180.57284,187.91081,180.46121,188.88281,181.65021C189.33681,187.54021,189.14111,195.65513,182.16211,195.57013C181.62311,194.98913,181.06342,194.42944,180.48242,193.89044C178.61842,193.86644,177.21864,194.30815,175.68164,194.61115C175.45264,195.05815,176.40064,195.41213,175.68164,195.57013C172.16764,193.74713,167.62189,197.44562,168.96289,201.09162C167.65189,201.64562,166.92672,202.98699,167.76172,204.45099C167.06972,204.79899,166.03003,204.79846,166.08203,205.89044C166.58503,206.47448,167.14848,205.67868,167.52148,206.13068C167.64048,207.77068,169.23339,207.93612,170.40039,208.52912C170.96439,208.45312,170.54433,207.39213,171.36133,207.57013C170.85933,208.10013,171.17356,209.16905,171.60156,209.49005C172.2994,209.50635,172.95032,209.47565,173.28516,209.12873C173.31516,209.12673,173.34816,209.11533,173.37496,209.12873C173.42766,209.15513,173.44726,209.22733,173.49996,209.25373C173.57446,209.29103,173.69103,209.19483,173.74996,209.25373C173.77946,209.28323,173.72046,209.34923,173.74996,209.37873C173.76806,209.39683,173.88471,209.38773,174.00387,209.37873C173.72094,209.54026,173.52794,209.84793,173.52144,210.44904C174.99306,210.59271,179.03379,211.60847,180.94723,209.50373C180.95853,209.504,180.97503,209.50336,180.99023,209.50373C181.46915,209.65365,181.74534,210.16565,182.16016,209.73029C182.13486,209.54338,182.08906,209.39595,182.04102,209.25373L182.12502,209.25373L182.75002,209.25373C182.78062,209.25373,182.81252,209.25673,182.84182,209.25373C182.85472,209.33013,182.87162,209.39448,182.88092,209.49005C185.88492,209.37405,188.64959,209.01935,191.51959,208.76935C191.63029,208.53798,191.76737,208.33357,191.90436,208.12873C191.99816,208.12881,192.12306,208.13073,192.12506,208.12873C192.15456,208.09923,192.09556,208.03323,192.12506,208.00373C192.16676,207.96203,192.33339,208.04543,192.37506,208.00373C192.40456,207.97423,192.34556,207.90823,192.37506,207.87873C192.40456,207.84923,192.46276,207.89733,192.50006,207.87873C193.02028,207.61862,192.36643,207.88773,192.62506,207.62873C192.65456,207.59923,192.72056,207.65823,192.75006,207.62873C192.77956,207.59923,192.72056,207.53323,192.75006,207.50373C192.77956,207.47423,192.84556,207.53323,192.87506,207.50373C192.93396,207.44483,192.81616,207.31265,192.87506,207.25373C192.90456,207.22423,192.97056,207.28323,193.00006,207.25373C193.05896,207.19483,192.94116,207.06265,193.00006,207.00373C193.00306,207.00073,193.01006,207.00473,193.01376,207.00373C193.12307,207.22531,193.29052,207.38829,193.67978,207.3299C193.70778,206.85574,193.83109,206.51228,193.97665,206.12873L194.25009,206.12873C194.28389,206.12873,194.31729,206.13173,194.35165,206.12873C194.28535,206.20683,194.22704,206.29331,194.15439,206.36505C194.33839,207.14105,194.82079,207.61951,195.59579,207.80451C195.97079,207.29951,196.43625,206.88629,197.03525,206.60529C197.01925,205.12229,197.28354,202.95343,196.31454,203.72443C196.05954,202.82943,197.21525,203.34521,197.03525,202.52521C199.34425,196.11521,204.83561,192.88737,207.35361,186.68537C208.84761,184.97937,209.75045,182.68065,211.19345,180.92365C211.03745,178.94565,211.63317,177.6561,210.95517,176.3631C205.68017,172.6181,200.90374,165.48904,197.51571,159.32404C197.03376,158.44604,196.30026,157.2041,196.07626,156.20294C196.00426,155.88798,196.56978,155.77819,196.55478,155.4842C196.51478,154.65616,195.57626,153.64057,196.07626,152.84357C196.62326,152.91057,196.97625,152.78507,197.03525,152.3631C196.67925,152.1591,196.52073,151.76088,196.55673,151.16388C199.65573,148.10188,202.96764,145.25527,205.43564,141.56427C209.03664,145.00327,213.57428,147.50673,219.11728,149.00373C219.75328,150.04873,220.47018,151.00893,221.99618,151.16193C224.91618,153.60393,226.96634,157.25032,230.15634,159.56232C233.78234,162.18932,238.6108,163.34755,242.63681,165.80255C242.98921,165.87265,243.43038,165.54911,243.73837,165.45099C243.74957,165.45499,243.76787,165.44999,243.77547,165.45899C243.81717,165.50069,243.73377,165.59311,243.77547,165.63478C243.83667,165.69598,243.9541,165.62578,244.045,165.61528C243.93646,165.87878,243.53592,165.8515,243.35555,166.04302C245.37155,169.54802,249.11417,171.32494,251.99617,173.96294C254.02917,175.95294,253.22061,178.95916,254.39461,181.16216C254.89561,182.10316,256.19147,182.06908,257.27547,183.08208C259.20247,184.88208,258.93031,187.83057,261.11531,188.60357C261.81531,190.14557,263.27978,192.19633,262.55477,194.36333C261.86678,193.93233,261.43338,193.24439,260.15438,193.40239C259.72938,193.67739,259.06086,194.2318,259.67586,194.8438C259.89123,194.9307,260.02734,194.9392,260.12508,194.9082L260.12508,195.0039C260.16678,195.0039,260.12508,195.17056,260.12508,195.1289L260.12508,195.2539L260.12508,195.6289C260.16678,195.6289,260.12508,195.79556,260.12508,195.7539L260.12508,195.6289C260.04178,195.6289,260.18398,195.82,260.12508,195.8789C260.09558,195.9084,260.02958,195.8494,260.00008,195.8789C259.99508,195.8839,260.00104,195.8923,260.00008,195.8984C259.70252,195.68257,259.37022,195.59548,259.0157,195.62496C257.44868,195.75527,255.51649,197.94184,254.87899,199.17184C254.89299,200.03882,255.47769,200.33376,255.59969,201.09176C254.62068,201.79276,253.769,202.62013,253.92,204.45113C254.012,204.52273,254.12738,204.57061,254.25008,204.61129C254.24808,204.79212,254.24208,204.98696,254.25008,205.00387C254.27648,205.05657,254.34868,205.07617,254.37508,205.12887C254.39368,205.16617,254.35648,205.21657,254.37508,205.25387C254.40148,205.30657,254.47368,205.32617,254.50008,205.37887C254.53738,205.45337,254.44118,205.56997,254.50008,205.62887C254.52958,205.65837,254.59558,205.59937,254.62508,205.62887C254.63308,205.63687,254.62208,205.66527,254.62508,205.67967C254.11243,206.23559,253.90915,206.93258,254.16024,207.81053C255.95025,208.66576,258.41469,210.04166,260.6036,209.7324C260.6106,209.7394,260.616,209.7494,260.6251,209.7539C260.6631,209.7729,260.94379,209.7539,261.0001,209.7539L261.7501,209.7539C261.7501,209.7122,261.91677,209.7539,261.8751,209.7539C261.9278,209.7275,261.9474,209.6553,262.0001,209.6289C262.0246,209.6167,262.0537,209.6249,262.0821,209.6289C262.08309,209.6637,262.0781,209.6951,262.0801,209.73046C265.4411,209.17246,266.83179,207.45277,269.75979,208.05077C269.86079,207.59177,269.84749,207.01783,270.48049,207.08983C270.58649,207.54383,270.15396,208.53505,270.96096,208.28905C271.31965,207.26244,272.3018,206.86076,272.7051,205.8789L272.87502,205.8789C272.91672,205.8789,272.97052,205.9084,273.00002,205.8789C273.02952,205.8494,272.97052,205.7834,273.00002,205.7539C273.04692,205.707,273.18166,205.7479,273.28127,205.7539C273.09874,206.12787,273.02607,206.56208,273.11525,207.08788C274.38825,207.16088,273.83918,205.41219,275.03518,205.40819C274.99818,206.00419,274.98968,206.57241,275.51369,206.60741C276.6957,204.93741,278.73924,204.80757,279.11526,202.76757C279.78726,199.11157,274.6334,195.83902,276.2344,192.20702C274.3764,191.26502,275.37847,187.46351,274.31447,185.72851C275.61394,178.49563,272.75983,170.70424,267.54885,168.90233C267.52225,168.87163,267.49875,168.83623,267.46295,168.81833C267.41025,168.79193,267.3461,168.81833,267.28718,168.81833C267.22828,168.75943,267.18397,168.67789,267.10945,168.64059C267.05675,168.61419,266.98636,168.66699,266.93366,168.64059C266.72393,168.53573,266.61564,168.22673,266.40826,168.11716C264.37573,165.68582,260.92621,163.80697,260.39459,160.76755C257.84759,159.47555,257.27054,156.21308,255.35553,154.28708C252.84253,142.94608,248.31975,134.76478,244.55475,125.00778C244.63475,117.61778,239.86276,112.28656,237.59576,105.80856C242.22176,106.85656,247.02892,106.29849,251.75592,107.72849C255.05092,107.35049,258.788,107.47125,261.836,107.48825C262.542,106.68525,263.6699,106.49608,264.7149,106.28708C271.0489,105.02008,276.33745,102.41609,281.27545,99.328095C282.95245,97.392095,284.38128,93.969626,286.07428,92.847626C286.45128,89.828626,287.84515,86.755017,287.99615,83.248017C288.57215,69.890017,275.21543,58.020173,264.23444,55.408173C261.04144,54.648173,257.93053,54.772314,255.35553,52.527314C253.56353,52.640314,253.12268,52.214564,251.51568,51.808564C251.42068,52.221564,251.87168,52.422314,251.51568,52.527314C250.30173,51.589314,247.33761,52.127861,247.43561,51.087861C245.65261,51.766861,242.41937,50.228861,241.19537,51.087861C241.34137,51.502861,242.33259,51.069331,242.39459,51.568329C237.67359,52.366329,234.28429,54.497626,231.11529,56.847626C231.63929,56.868626,232.66894,56.190392,232.79694,56.607392C230.13294,58.823392,227.32301,60.895095,224.87701,63.328095C225.33199,63.314485,225.86894,63.125552,226.45123,62.876923C226.45723,62.896263,226.46323,62.915673,226.45123,62.927703C226.43043,62.948533,226.38223,62.906873,226.36143,62.927703C226.34063,62.948533,226.38223,62.996703,226.36143,63.017543C226.31973,63.059213,226.22732,62.975873,226.18565,63.017543C226.16485,63.038373,226.20645,63.084593,226.18565,63.105433C226.16485,63.126263,226.11865,63.084603,226.09775,63.105433C226.07695,63.126263,226.11855,63.172483,226.09775,63.193323C226.07695,63.214153,226.02865,63.172493,226.00795,63.193323C225.98715,63.214153,226.02875,63.260373,226.00795,63.281213C225.96625,63.322883,225.87383,63.239543,225.83217,63.281213C225.81137,63.302043,225.84537,63.344703,225.83217,63.371053C225.81357,63.408323,225.76097,63.421673,225.74237,63.458943C225.72917,63.485293,225.74237,63.517363,225.74237,63.546833L225.74237,63.634723L225.74237,63.964801C224.59116,64.168924,223.55587,64.489397,223.43963,65.728473C223.85002,65.523429,224.37716,65.319508,224.94745,65.138629C224.97815,65.128929,225.00445,65.116949,225.03535,65.107379C225.03835,65.119009,225.04235,65.131219,225.03535,65.138629C225.01455,65.159459,224.96825,65.117799,224.94745,65.138629C224.92665,65.159459,224.96065,65.200169,224.94745,65.226519C224.92885,65.263789,224.87825,65.277139,224.85955,65.314409C224.83315,65.367119,224.90125,65.450475,224.85955,65.492144C224.83875,65.512974,224.79245,65.471314,224.77165,65.492144C224.75085,65.512974,224.79245,65.559194,224.77165,65.580034C224.75135,65.600414,224.70515,65.562254,224.68375,65.580034C224.68075,65.617644,224.67115,65.667924,224.68175,65.667924C224.71125,65.667924,224.66095,65.600864,224.68175,65.580034L224.68375,65.580034C224.68875,65.524054,224.68175,65.492574,224.59395,65.667924C224.57645,65.702974,224.61205,65.91548,224.59395,65.933549C224.57315,65.954379,224.52695,65.912719,224.50605,65.933549C224.47645,65.963099,224.47045,65.982099,224.47875,65.996049C223.39961,66.061899,222.81825,66.163651,222.4807,67.408158C223.30583,66.981905,224.41715,66.842085,224.84789,66.021439L225.20335,66.021439C225.31936,66.443782,225.29705,66.588913,225.11935,67.169877C223.94335,67.753877,222.16298,67.732799,221.75998,69.089799C224.48298,67.966799,225.8789,66.706393,229.6799,67.648393C229.2869,68.74239,230.84441,68.407799,230.15841,69.089799C243.63041,72.843799,247.15143,61.591392,259.19943,61.648393C260.23443,60.722392,262.54773,60.868158,264.47873,61.408158C271.13873,63.271158,281.07821,72.614314,282.00021,81.568314C282.52721,86.692314,279.33991,91.30508,276.72091,93.32808C274.45491,95.07808,270.69005,96.688877,267.84005,97.169877C266.25205,97.437877,264.26176,97.125157,262.56076,97.408158C260.43476,97.762158,258.38105,98.225627,255.84005,97.888627C248.05805,96.857627,242.59485,92.326486,236.64083,88.769486C225.69684,82.231486,214.42998,75.666002,203.75998,71.248002L203.75998,70.529252C198.60898,70.669252,193.87207,68.520392,188.88107,67.648393C181.26107,66.316393,173.4126,65.842408,164.4006,66.689408C157.7406,67.315408,149.65127,68.20933,143.03927,68.60933C138.07427,68.90933,130.36166,69.089174,127.43966,66.449174C127.29966,66.322174,127.8509,65.986471,127.6799,65.728471C126.5539,64.030471,124.1949,63.214799,121.6799,63.089799C122.5049,62.561799,124.13527,62.933799,125.03927,63.089799C125.08227,61.766799,123.0786,62.490627,122.4006,61.888627C122.9356,61.303627,124.14387,59.226486,122.64083,58.769486C122.90685,59.436486,123.07837,60.799643,122.16037,60.929643C123.22837,57.791643,119.58874,56.495174,119.51974,54.449174C119.11474,53.973174,118.41805,53.790236,117.84005,53.488236C117.26005,50.491236,112.08207,50.187486,110.88107,52.769486C112.52007,51.116486,116.61007,51.601236,116.88107,53.488236C116.10207,53.349236,115.76243,53.651471,115.19943,53.728471C114.23143,51.539471,111.3299,52.984236,109.6799,53.488236C109.5549,53.133236,109.32443,52.884252,109.19943,52.529252C111.61843,51.597252,115.64382,48.307549,117.59982,51.808549C116.69382,45.572549,109.64429,52.653486,106.08029,52.769486C105.95529,52.414486,105.72482,52.163549,105.59982,51.808549C106.14682,51.478549,106.50276,52.427549,106.56076,51.808549C106.20176,51.527549,105.57759,51.510799,105.35959,51.089799C106.16857,51.170799,107.77968,51.696799,108.48068,51.089799C107.00368,50.483799,110.27913,50.929627,109.92013,49.888627C106.99213,50.573627,102.48144,50.688705,102.24044,47.968705C103.72144,49.659705,109.17086,50.670939,110.64083,48.208939C108.55186,48.798939,105.3039,49.506705,103.6799,47.968705C106.5909,49.036705,108.69256,47.268486,111.35959,46.769486C108.12858,46.894486,102.64644,49.733096,102.24044,44.369096C102.71744,44.372096,102.54443,45.024564,103.19943,44.849564C104.22043,42.320564,106.39582,40.989861,105.59982,38.128861C104.95182,35.799861,102.66299,35.443783,100.80099,34.048783C100.94003,34.035443,101.05775,34.000893,101.18966,33.980423L101.20526,33.980423L101.27166,33.980423C101.27866,33.980423,101.28616,33.982723,101.29316,33.980423C101.30876,33.975223,101.32206,33.962933,101.33806,33.958943C101.49546,33.919593,101.225,34.026443,101.44744,33.937463C101.45044,33.936363,101.45244,33.934663,101.45544,33.933563C102.83361,33.415024,103.80972,32.649341,104.36559,31.693329C105.34092,31.37049,106.25076,31.523671,107.03942,33.089814C107.09442,32.153814,106.52467,31.844892,106.32067,31.169892C103.97567,29.872892,102.69414,32.184111,100.80114,32.369111C94.378182,32.997111,96.964974,25.997564,93.599974,21.808564C94.022974,22.017564,94.343912,22.611564,94.560912,21.808564C93.105453,18.896877,91.009422,16.62538,87.857787,15.410126C87.852987,15.397706,87.859287,15.424346,87.844117,15.378876C87.821167,15.309876,87.883997,15.387476,87.812867,15.316376C87.808167,15.307076,87.817567,15.294426,87.812867,15.285126C87.799687,15.258776,87.763547,15.248976,87.750367,15.222626C87.745667,15.213326,87.756167,15.200076,87.750367,15.191376C87.734027,15.166866,87.704207,15.153396,87.687867,15.128876C87.682067,15.120176,87.692567,15.106926,87.687867,15.097626C87.681267,15.084446,87.663217,15.079556,87.656617,15.066376C87.651917,15.057076,87.661317,15.044426,87.656617,15.035126C87.591617,14.905076,87.658817,15.068536,87.594117,15.003876C87.586717,14.996476,87.598817,14.981926,87.594117,14.972626C87.587517,14.959446,87.569467,14.954556,87.562867,14.941376C87.56228,14.940176,87.563,14.938776,87.562867,14.937476C88.061826,15.082672,88.507978,15.212769,88.801148,15.328101C88.478148,13.331101,85.648601,13.842664,84.240601,12.929664C84.867601,12.997664,85.271586,12.840964,85.199586,12.20896C84.210586,11.93596,82.467992,12.780195,80.640992,12.449195C78.727992,11.562195,78.792148,8.698648,76.801148,7.888648C75.018897,3.090943,65.753474,1.402093,61.503906,4.8125C61.512806,4.745755,61.54397,4.672882,61.5,4.628906C61.44107,4.569981,61.32453,4.666174,61.25,4.628906C61.144591,4.576201,61.105409,4.431611,61,4.378906C60.92972,4.343767,60.825135,4.418642,60.763672,4.378906C62.133779,3.813346,63.382217,3.126592,64.800781,2.609375C64.560781,2.069375,63.491141,3.128141,63.119141,2.369141C63.684141,2.071141,64.847313,1.577688,64.320312,0.929688C63.078795,2.081567,61.554351,2.973939,59.875,3.402344C59.8772,3.393604,59.8805,3.384432,59.875,3.378906C59.86027,3.364175,59.83113,3.388226,59.8125,3.378906C59.78615,3.36573,59.77083,3.337239,59.75,3.316406C59.72917,3.295573,59.71385,3.267082,59.6875,3.253906C59.66887,3.244586,59.63973,3.268637,59.625,3.253906C59.61027,3.239175,59.63973,3.206137,59.625,3.191406C59.61027,3.176675,59.58113,3.200726,59.5625,3.191406C59.5378,3.179054,59.52679,3.147689,59.50391,3.132812C60.794444,3.070141,61.893508,2.454542,62.640629,0.689452C61.083629,1.129452,59.687848,2.330906,57.839848,2.128906C56.943848,2.030906,56.489692,1.245687,55.679692,0.929687C54.304367,0.392189,52.95804,0.13902,51.6875,0.15625C49.033296,0.192245,46.718891,1.420975,45.136719,3.691406L44.9375,3.691406L44.875,3.691406C44.85417,3.691406,44.83113,3.682086,44.8125,3.691406C44.78615,3.704582,44.77635,3.74073,44.75,3.753906C44.71273,3.77254,44.66227,3.735272,44.625,3.753906C45.507279,2.489199,46.523207,1.359622,47.519531,0.208984C46.902906,0.035109,46.364768,-0.023777,45.886719,0.007813ZM261.875,209.75391L261.75,209.75391C261.75,209.79561,261.8377,209.77251,261.875,209.75391ZM260.125,195.12891L260.125,195.00391C260.0833,195.00391,260.125,195.08721,260.125,195.12891ZM45.048828,121.63086C44.803304,120.62857,44.625961,119.56954,44.548828,118.42773C44.529988,118.41333,44.510288,118.39953,44.499998,118.37893C44.462728,118.30443,44.558928,118.18783,44.499998,118.12893C44.470538,118.09943,44.404458,118.15843,44.374998,118.12893C44.345538,118.09943,44.374998,118.04563,44.374998,118.00393L44.374998,117.12893L44.374998,116.49807C44.349508,116.36434,44.331798,116.24869,44.304688,116.11135C42.542063,124.06193,45.339635,127.63003,45.048828,121.63088ZM46,3.492188C45.999763,3.495998,46.0028,3.501148,46,3.503907C45.9987,3.505236,45.98448,3.503314,45.98047,3.503907C45.98697,3.500096,45.99353,3.496016,46,3.492188ZM8.160156,60.449219C5.555159,60.723219,3.002158,61.051844,2.160156,63.089844C4.111158,62.160844,6.194159,61.363219,8.160156,60.449219ZM225.30078,65.025391C225.30178,65.034291,225.30678,65.044891,225.30078,65.050781C225.28708,65.064431,225.24988,65.054581,225.21878,65.050781C225.24668,65.042581,225.27278,65.033391,225.30078,65.025391ZM30.960938,101.49023C30.907938,104.60723,31.791156,107.94008,32.160156,111.33008C30.833156,109.04008,29.818917,104.76023,30.960938,101.49023ZM256.25977,200.00391C256.29687,200.01191,256.34777,199.97671,256.375,200.00391C256.3957,200.02461,256.38,200.06031,256.375,200.09181C256.3582,200.10481,256.3342,200.11791,256.3184,200.13091C256.3057,200.08401,256.2786,200.04721,256.2598,200.00396Z" clip-rule="evenodd" fill="rgb(255,0,0)" fill-rule="evenodd" stroke="rgb(0,0,0)" stroke-width="1"/></svg>