<svg id="eEzKgNPO6391" xmlns="http://www.w3.org/2000/svg" xmlns:xlink="http://www.w3.org/1999/xlink" viewBox="0 0 1200 1200" shape-rendering="geometricPrecision" text-rendering="geometricPrecision"><path id="eEzKgNPO6392" d="M556.254,587.909C556.823,587.463,557.345,587.109,557.748,586.95C569.053,588.027,578.676,606.47,576.133,616.922C561.604,612.252,559.875,600.433,556.254,587.909ZM1002.474,1043.019C978.092,1058.723,962.511,1084.449,949.851,1109.839C944.428,1120.716,940.208,1132.521,934.096,1143.025C925.398,1157.973,910.419,1143.32,900.463,1136.356C856.378,1105.513,819.774,1065.591,783.476,1026.249C745.785,985.395,708.093,944.539,670.402,903.684C634.739,865.028,598.962,826.474,563.434,787.693C522.218,742.701,481.748,696.428,449.591,644.367C433.137,617.728,418.948,589.602,408.531,560.041C397.507,528.761,392.262,495.809,381.21,464.548C358.929,401.525,307.153,351.616,263.184,303.111C239.626,277.122,216.043,251.096,194.288,223.558C175.193,199.387,165.776,174.164,163.576,143.332C162.502,128.252,162.95,113.073,164.47,98.039C169.153,129.297,176.61,160.925,192.348,188.627C198.107,198.765,205.053,208.2,213.052,216.673C215.493,196.168,226.754,160.035,226.007,161.467C226.007,143.332,262.82,141.389,258.454,146.262C254.994,150.124,248.058,154.316,245.746,158.81C245.45,159.385,225.411,197.638578,225.411,228.195C236.41,237.078,248.659,244.309,259.651,253.237C285.348,274.11,308.593,299.585,330.809,324.077C353.614,349.217,373.582,376.1,388.949,406.43C396.399,421.131,403.5,436.184,413.359,449.476C422.464,461.754,436.97,477.16,453.206,478.511C451.907,484.327,441.42,514.417,456.071,511.737C462.822,510.502,462.453,500.971,463.448,495.749C465.008,487.556,466.804,479.408,468.812,471.313C474.273,463.087,475.001,448.886,476.841,439.423C480.223,422.021,483.605,404.62,486.987,387.219C494.637,347.85,505.869,306.575,486.326,268.674C486.08,264.545,481.947,260.595,480.61,256.636C478.929,251.663,478.527,246.349,478.554,241.13C478.614,228.918,480.739,216.263,483.268,204.352C487.177,208.689,496.204,211.605,497.241,202.925C497.796,198.281,491.099,191.538,488.3,188.112C492.804,179.306,499.439,185.624,504.306,190.784C510.875,197.75,508.774,205.958,508.301,214.725C507.241,234.382,508.334,254.4,511.364,273.845C509.771,278.8,514.129,287.605,515.29,292.59C517.092,300.334,518.452,308.184,519.429,316.074C521.249,330.768,521.713,345.62,521.142,360.409C519.963,390.937,514.517,421.152,507.267,450.778C500.227,479.537,489.471,507.593,483.626,536.597C477.295,568.022,485.743,592.856,504.935,617.751C500.864,619.735,498.885,624.167,501.708,628.121C506.04,634.19,513.525,628.884,517.853,625.676C528.356,617.893,534.766,606.203,543.98,597.151C546.064,609.032,553.468,619.593,563.708,625.86C552.869,634.671,544.328,645.685,538.065,658.138C535.858,662.524,530.64,669.839,533.78,674.903C537.927,681.589,544.667,676.586,546.87,671.413C579.525,713.18,611.492,755.686,645.738,796.161C706.684,868.19,776.806,932.379,853.933,986.73C875.98,1002.266,898.94,1017.777,924.448,1027.053C949.452,1036.146,976.203,1039.698,1002.474,1043.019ZM443.28,563.109C440.389,546.175,437.278,524.943,428.145,510.024C425.12,505.083,417.306,502.171,415.012,509.797C413.204,515.802,420.667,527.114,422.447,533.14C425.085,542.054,427.274,551.105,429.009,560.237C430.693,569.093,430.369,579.286,432.844,587.85C434.48,593.518,441.545,596.776,445.382,590.758C449.162,584.832,444.375,569.51,443.28,563.109ZM471.219,633.361C468.802,628.636,464.992,622.074,461.266,618.285C453.788,610.682,446.892,619.287,450.978,627.279C453.664,632.535,457.674,637.421,460.932,642.355C463.935,646.904,471.04,646.073,472.929,640.98C474.049,637.966,472.493,635.85,471.219,633.361ZM912.725,1064.408C907.759,1068.105,904.053,1074.22,899.673,1078.611C891.061,1087.246,879.627,1076.694,873.075,1069.59C862.817,1058.465,854.532,1045.782,843.946,1034.877C833.301,1023.911,821.813,1013.389,809.903,1003.807C805.643,1000.38,796.937,997.6,796.289,1006.348C795.81,1012.807,806.962,1019.091,811.237,1022.824C824.62,1034.512,837.7,1046.723,848.69,1060.742C861.494,1077.074,886.948,1111.377,909.12,1088.342C913.337,1083.96,918.031,1079.487,921.703,1074.649C927.249,1067.338,921.14,1058.142,912.725,1064.408ZM1031.027,1046.699C1029.996,1046.555,1028.921,1046.417,1027.876,1046.276C1006.105,1048.6,986.917,1073.403,976.177,1090.24C964.462,1108.604,956.602,1128.754,946.777,1148.083C953.941,1148.69,961.06,1150.244,968.282,1149.968C960.414,1133.208,978.575,1111.744,988.039,1099.484C992.191,1094.103,999.848,1078.961,1007.224,1078.02C1015.124,1077.012,1015.54,1085.175,1012.505,1089.989C1009.665,1094.494,1005.838,1098.605,1002.58,1102.818C998.839,1107.653,995.013,1112.44,991.477,1117.428C989.219,1120.616,975.215,1140.936,980.938,1144.795C982.37,1144.799,983.798,1144.869,985.224,1145.007C997.742,1137.664,1005.756,1124.979,1013.888,1113.398C1021.482,1102.576,1029.669,1091.449,1033.993,1078.818C1036.619,1071.155,1040.4,1051.822,1031.027,1046.699Z" transform="matrix(-1 0 0 -1 1037.014039 1150.000366)" fill="rgb(56,29,16)" stroke="none" stroke-width="1"/></svg>